<?xml version="1.0" standalone="no"?>
<svg viewBox="0 0 200 200" xmlns="http://www.w3.org/2000/svg">
  <path fill="#FF0066" d="M36,-58.2C48.2,-55.3,60.9,-48.8,71.5,-38.6C82.1,-28.3,90.8,-14.1,89.9,-0.5C89.1,13.2,78.8,26.4,69,38.2C59.3,50,50.1,60.4,38.7,63C27.2,65.5,13.6,60.3,-0.2,60.6C-13.9,60.9,-27.9,66.6,-35.1,61.6C-42.3,56.6,-42.9,40.9,-49.9,28.8C-56.9,16.7,-70.3,8.4,-75.2,-2.8C-80.2,-14.1,-76.6,-28.1,-69.8,-40.6C-63.1,-53,-53.1,-63.9,-40.9,-66.8C-28.8,-69.8,-14.4,-64.8,-1.3,-62.6C11.9,-60.5,23.7,-61.1,36,-58.2Z" transform="translate(100 100)" />
</svg>
